HIERARCHY
ROOT Hips
{
	OFFSET -6.735209 106.389282 -5.845621
	CHANNELS 6 Xposition Yposition Zposition Xrotation Yrotation Zrotation
	JOINT Chest
	{
		OFFSET 1.077482 13.523247 1.454350
		CHANNELS 3 Xrotation Yrotation Zrotation
		JOINT Chest2
		{
			OFFSET 2.959523 21.216972 0.384526
			CHANNELS 3 Xrotation Yrotation Zrotation
			JOINT Chest3
			{
				OFFSET 2.375142 14.582306 -2.129560
				CHANNELS 3 Xrotation Yrotation Zrotation
				JOINT Neck
				{
					OFFSET 4.441743 16.687073 -0.654522
					CHANNELS 3 Xrotation Yrotation Zrotation
					JOINT Head
					{
						OFFSET 1.869761 10.309509 0.214115
						CHANNELS 3 Xrotation Yrotation Zrotation
						End Site
						{
							OFFSET 1.918426 10.301529 0.160180
						}
					}
				}
				JOINT LeftCollar
				{
					OFFSET 5.136165 12.530777 4.289947
					CHANNELS 3 Xrotation Yrotation Zrotation
					JOINT LeftUpArm
					{
						OFFSET 13.321817 4.047379 10.707349
						CHANNELS 3 Xrotation Yrotation Zrotation
						JOINT LeftLowArm
						{
							OFFSET -25.850937 10.892883 18.783028
							CHANNELS 3 Xrotation Yrotation Zrotation
							JOINT LeftHand
							{
								OFFSET -17.107428 24.653976 0.681280
								CHANNELS 3 Xrotation Yrotation Zrotation
								End Site
								{
									OFFSET -3.738937 5.388260 0.148899
								}
							}
						}
					}
				}
				JOINT RightCollar
				{
					OFFSET -1.521953 14.110992 -0.610208
					CHANNELS 3 Xrotation Yrotation Zrotation
					JOINT RightUpArm
					{
						OFFSET -9.336292 5.108902 -13.972435
						CHANNELS 3 Xrotation Yrotation Zrotation
						JOINT RightLowArm
						{
							OFFSET -19.234688 22.571640 16.133244
							CHANNELS 3 Xrotation Yrotation Zrotation
							JOINT RightHand
							{
								OFFSET 10.504490 21.585754 18.018488
								CHANNELS 3 Xrotation Yrotation Zrotation
								End Site
								{
									OFFSET 2.295856 4.717789 3.938110
								}
							}
						}
					}
				}
			}
		}
	}
	JOINT LeftUpLeg
	{
		OFFSET 8.920938 -1.185066 4.408130
		CHANNELS 3 Xrotation Yrotation Zrotation
		JOINT LeftLowLeg
		{
			OFFSET 12.937965 -42.288067 16.979908
			CHANNELS 3 Xrotation Yrotation Zrotation
			JOINT LeftFoot
			{
				OFFSET -6.223141 -40.992744 -16.776026
				CHANNELS 3 Xrotation Yrotation Zrotation
				JOINT LeftToe
				{
					OFFSET -6.838751 -21.385262 7.447252
					CHANNELS 3 Xrotation Yrotation Zrotation
					End Site
					{
						OFFSET -1.051539 -13.016201 19.723886
					}
				}
			}
		}
	}
	JOINT RightUpLeg
	{
		OFFSET -8.920958 1.184868 -4.408154
		CHANNELS 3 Xrotation Yrotation Zrotation
		JOINT RightLowLeg
		{
			OFFSET 2.026291 -47.036739 -5.239341
			CHANNELS 3 Xrotation Yrotation Zrotation
			JOINT RightFoot
			{
				OFFSET 9.675632 -40.675812 -15.888349
				CHANNELS 3 Xrotation Yrotation Zrotation
				JOINT RightToe
				{
					OFFSET -2.590332 -21.673084 9.117243
					CHANNELS 3 Xrotation Yrotation Zrotation
					End Site
					{
						OFFSET -7.373067 -10.772858 19.726620
					}
				}
			}
		}
	}
}
MOTION
Frames: 9
Frame Time: 0.033333
-8.969000 104.500694 -8.296216 5.943722 -8.171912 -0.860219 -2.544081 0.954356 -4.005821 -1.315564 0.099082 -0.341554 -1.305368 -9.865234 -1.341800 -4.692471 2.256903 -4.207179 0.000001 0.000004 0.000002 6.088203 -3.594389 -4.443813 10.318380 2.392190 -0.555572 -2.239167 -6.730322 5.534923 -0.000001 -0.000001 0.000004 -3.637370 1.817619 5.645823 -3.468133 -1.645263 18.129755 10.577171 4.429517 -3.722482 -0.000006 0.000001 0.000000 -3.603031 1.121238 10.550015 8.903409 -0.878997 -15.059242 4.882810 25.104266 2.937721 -0.000001 -0.000002 0.000001 -6.111406 0.606047 -1.048626 2.323817 0.143617 6.262824 -2.573164 6.099608 -4.670357 0.000000 -0.000002 0.000001 
-9.093758 104.378723 -8.494983 6.085422 -7.786940 -0.859122 -2.385893 0.911826 -3.967348 -1.945870 0.028246 -0.150407 -1.222484 -10.860181 -1.586082 -5.438410 2.348748 -4.151441 0.000001 0.000000 -0.000000 6.307400 -3.449401 -4.398477 9.896287 2.689469 -0.626250 -3.084229 -8.057491 6.168849 -0.000000 -0.000001 0.000002 -3.497952 2.037437 6.027247 -3.663078 -2.474995 17.920144 9.201159 4.637299 -4.216043 0.000001 -0.000001 -0.000001 -3.476438 1.166610 11.028807 9.099348 -1.040792 -16.345693 4.959560 26.814735 3.084883 0.000000 0.000002 -0.000000 -6.466564 0.718901 -1.337292 2.895615 0.254485 7.063090 -2.748692 6.040073 -4.760085 -0.000002 0.000004 0.000000 
-9.202439 104.256294 -8.670749 5.593762 -7.553364 -0.749428 -1.790899 0.818146 -4.283528 -2.129035 -0.129521 0.334863 -1.412663 -10.551781 -1.908138 -5.742493 2.281589 -3.644253 0.000002 0.000002 0.000004 6.653005 -3.807032 -3.912200 8.907136 2.699764 -0.194904 -4.202301 -8.457813 5.776884 0.000001 0.000003 0.000004 -4.086890 1.075801 6.467328 -2.972113 -2.449648 17.556296 7.893635 4.561038 -4.772136 0.000001 -0.000001 -0.000000 -2.944306 1.225069 11.120554 9.416956 -1.275392 -17.126069 5.035373 28.019459 3.225947 0.000005 0.000004 -0.000004 -6.365718 0.864507 -1.687447 3.471417 0.509330 7.800966 -3.812873 5.228434 -4.670302 -0.000004 0.000001 0.000001 
-9.309132 104.115341 -8.855909 5.153578 -7.159933 -0.776233 -1.361268 0.705342 -4.089106 -2.007086 0.063395 -0.001669 -1.480589 -10.940039 -1.735013 -5.268337 2.522528 -3.666519 -0.000001 0.000002 0.000000 6.856740 -4.207987 -3.800863 8.723905 2.751764 -0.207160 -3.963794 -7.729398 4.993161 -0.000001 -0.000001 0.000002 -4.511392 0.307181 6.221717 -2.579323 -1.695557 17.811299 9.411910 4.410766 -4.275818 -0.000002 0.000001 0.000000 -2.764554 1.264267 11.425909 10.428200 -1.478433 -17.444081 4.969292 29.339593 3.492665 0.000004 0.000002 -0.000001 -6.713080 0.946542 -1.817755 4.416662 0.809461 8.629585 -5.802607 4.150038 -4.869708 -0.000004 -0.000000 0.000001 
-9.407070 103.977333 -9.033613 5.081639 -7.188310 -0.772008 -1.331893 0.691903 -4.107899 -2.347068 0.056689 -0.056873 -1.309263 -10.989427 -1.635993 -4.872924 2.585745 -3.721129 0.000002 0.000000 -0.000000 7.357686 -4.357104 -4.178198 9.057631 2.689429 -0.156422 -3.697859 -7.380095 4.889508 0.000000 -0.000003 0.000001 -4.191630 0.623499 6.120437 -2.442522 -1.247210 17.978262 10.274653 4.269912 -3.935759 -0.000003 0.000001 0.000003 -2.673101 1.396014 11.859043 11.048406 -1.643830 -17.873685 5.003057 30.910516 3.631362 0.000000 0.000006 -0.000005 -6.966559 0.891917 -1.697948 4.881973 1.005249 8.665677 -6.572864 4.347404 -5.258342 -0.000003 0.000001 -0.000001 
-9.490198 103.845322 -9.198279 5.233536 -7.032351 -0.667444 -1.544585 0.768736 -4.382779 -1.881196 -0.107589 0.379910 -1.533315 -10.930819 -1.998731 -5.100835 2.263930 -3.264233 0.000001 0.000000 0.000001 7.479121 -4.630792 -4.201962 9.061720 2.879544 -0.221767 -3.723554 -7.439954 5.131825 -0.000000 -0.000004 0.000001 -4.756756 0.398407 6.567835 -2.512731 -1.267763 18.152474 10.969209 4.408108 -4.212311 -0.000004 -0.000002 0.000001 -3.024107 1.320217 12.003240 11.760424 -1.817017 -18.111650 4.802610 31.531657 3.762671 -0.000001 0.000000 0.000001 -7.045746 0.880084 -1.609790 4.717884 1.009151 8.497007 -6.867821 4.884196 -5.642857 -0.000001 0.000001 -0.000001 
-9.554388 103.718498 -9.355288 5.867569 -7.016184 -0.476134 -1.792158 0.840032 -4.732898 -2.228221 -0.345871 0.803418 -1.357765 -11.084388 -2.397969 -5.500294 1.961016 -2.918059 0.000001 0.000000 0.000002 7.655052 -4.805815 -4.126655 8.783423 2.961659 -0.223581 -3.723035 -7.705374 5.554448 -0.000000 0.000001 0.000002 -5.138169 0.092776 6.851033 -2.237811 -0.968272 18.503013 11.581965 4.338665 -4.006944 -0.000002 -0.000001 0.000001 -3.012574 1.310900 12.068716 11.109945 -1.708533 -18.232445 5.156507 32.178882 3.635381 0.000004 0.000002 -0.000001 -7.931735 0.923353 -1.427235 4.239973 0.913948 8.054205 -6.955319 4.852459 -5.674429 -0.000003 0.000001 -0.000002 
-9.610910 103.583580 -9.525401 6.824408 -6.983751 -0.257376 -2.261706 0.928540 -4.885001 -1.760658 -0.114744 0.510827 -1.776785 -11.613657 -2.145076 -6.155907 1.993085 -2.836150 0.000001 -0.000001 0.000003 7.797829 -4.744042 -3.747201 7.560957 3.108320 0.133061 -3.534707 -5.827293 4.992492 0.000001 0.000004 0.000005 -5.265097 -0.240634 7.326419 -1.601795 -1.191966 18.232712 10.520904 3.980169 -4.811919 -0.000001 -0.000001 0.000003 -3.552780 1.246187 12.297454 10.583183 -1.684692 -18.697184 5.760280 32.803630 3.636101 0.000003 0.000003 -0.000005 -9.195841 1.009332 -1.350079 4.132283 0.879916 7.876806 -7.549699 4.675614 -5.923847 -0.000004 0.000001 -0.000000 
-9.663156 103.455925 -9.681568 6.848639 -6.820155 0.021637 -2.493312 1.015953 -5.199121 -0.686914 -0.044713 0.516385 -2.583749 -11.398464 -2.142687 -5.785502 2.150525 -2.947298 0.000001 0.000005 -0.000000 7.998984 -4.884616 -3.918212 7.690590 3.264765 -0.022480 -3.079979 -5.593205 5.458459 -0.000001 0.000002 0.000002 -5.039109 0.039477 7.265185 -1.896472 -1.481204 18.315045 11.049820 3.862183 -4.436610 -0.000001 -0.000003 0.000001 -3.454338 1.251233 12.202305 10.359670 -1.620743 -18.958302 6.574144 33.429459 3.550345 0.000003 -0.000003 0.000001 -9.393765 1.060181 -1.548617 4.138996 0.843859 7.887942 -7.830124 4.529534 -6.029747 0.000001 0.000000 -0.000000 
